<svg xmlns="http://www.w3.org/2000/svg" version="1.1" width="1024" height="680">
<rect x="0" y="0" width="1024" height="680" fill="#646b65" />
<g transform="scale(4.000000) translate(0.5 0.5)">
<polygon fill="#fffff4" fill-opacity="0.501961" points="5,-16 -16,82 271,22" />
<polygon fill="#000000" fill-opacity="0.501961" points="82,47 271,169 -16,168" />
<polygon fill="#cbc5be" fill-opacity="0.501961" points="252,-16 -16,62 271,87" />
<polygon fill="#000c04" fill-opacity="0.501961" points="271,185 249,81 -16,163" />
<polygon fill="#395c62" fill-opacity="0.501961" points="161,137 270,82 -16,67" />
<polygon fill="#0a0b00" fill-opacity="0.501961" points="-16,176 -9,69 199,185" />
<polygon fill="#a1c3d4" fill-opacity="0.501961" points="-16,1 271,63 253,-16" />
<polygon fill="#ffcc7d" fill-opacity="0.501961" points="72,79 80,16 -16,53" />
<polygon fill="#545c58" fill-opacity="0.501961" points="-12,115 112,109 28,57" />
<polygon fill="#ffe4b0" fill-opacity="0.501961" points="68,35 -16,13 10,72" />
<polygon fill="#c68261" fill-opacity="0.501961" points="165,86 53,47 144,46" />
<polygon fill="#597f95" fill-opacity="0.501961" points="124,45 271,55 251,95" />
<polygon fill="#395a65" fill-opacity="0.501961" points="149,116 165,77 271,134" />
<polygon fill="#080c00" fill-opacity="0.501961" points="109,107 7,168 269,173" />
<polygon fill="#535345" fill-opacity="0.501961" points="99,62 56,135 80,43" />
<polygon fill="#dcd4ce" fill-opacity="0.501961" points="215,46 92,9 31,41" />
<polygon fill="#19414c" fill-opacity="0.501961" points="116,86 271,87 250,124" />
<polygon fill="#a5bac3" fill-opacity="0.501961" points="103,100 72,98 93,110" />
<polygon fill="#ffb767" fill-opacity="0.501961" points="46,40 35,74 81,61" />
<polygon fill="#92b2bf" fill-opacity="0.501961" points="253,-16 259,38 65,0" />
<polygon fill="#000000" fill-opacity="0.501961" points="78,136 26,103 18,119" />
<polygon fill="#6a8694" fill-opacity="0.501961" points="164,100 194,118 148,117" />
<polygon fill="#1c3232" fill-opacity="0.501961" points="157,97 112,61 127,156" />
<polygon fill="#85939b" fill-opacity="0.501961" points="12,18 51,-4 77,33" />
<polygon fill="#4e5b58" fill-opacity="0.501961" points="214,122 260,86 201,178" />
<polygon fill="#694d37" fill-opacity="0.501961" points="64,71 -16,72 40,96" />
<polygon fill="#cca99d" fill-opacity="0.501961" points="146,86 174,76 102,35" />
<polygon fill="#483609" fill-opacity="0.501961" points="47,123 -16,132 83,155" />
<polygon fill="#ffe2a8" fill-opacity="0.501961" points="25,25 17,78 -16,43" />
<polygon fill="#ffb26e" fill-opacity="0.501961" points="97,77 97,60 112,57" />
<polygon fill="#6690a1" fill-opacity="0.501961" points="6,120 -16,98 22,110" />
<polygon fill="#0b0c00" fill-opacity="0.501961" points="74,47 80,56 88,49" />
<polygon fill="#2f4c52" fill-opacity="0.501961" points="82,123 33,104 59,63" />
<polygon fill="#5c92a7" fill-opacity="0.501961" points="172,84 195,67 255,88" />
<polygon fill="#001e20" fill-opacity="0.501961" points="86,90 99,101 95,56" />
<polygon fill="#43311f" fill-opacity="0.501961" points="19,66 36,67 32,100" />
<polygon fill="#fdc395" fill-opacity="0.501961" points="86,45 87,68 98,30" />
<polygon fill="#283d3e" fill-opacity="0.501961" points="162,113 163,144 123,145" />
<polygon fill="#877058" fill-opacity="0.501961" points="72,67 83,97 84,53" />
<polygon fill="#0f1000" fill-opacity="0.501961" points="191,169 210,124 167,120" />
<polygon fill="#092526" fill-opacity="0.501961" points="117,93 93,93 103,68" />
<polygon fill="#ffc380" fill-opacity="0.501961" points="27,43 45,74 78,53" />
<polygon fill="#b1acb0" fill-opacity="0.501961" points="252,81 209,73 271,68" />
<polygon fill="#b9bdbc" fill-opacity="0.501961" points="184,51 107,-16 241,49" />
<polygon fill="#966244" fill-opacity="0.501961" points="24,79 4,66 -16,87" />
<polygon fill="#000100" fill-opacity="0.501961" points="212,170 89,185 66,125" />
<polygon fill="#2f4a4e" fill-opacity="0.501961" points="130,69 98,115 141,82" />
<polygon fill="#68716f" fill-opacity="0.501961" points="163,98 148,130 147,110" />
<polygon fill="#ffae66" fill-opacity="0.501961" points="67,77 64,58 80,52" />
<polygon fill="#d7ccbe" fill-opacity="0.501961" points="50,8 91,49 147,46" />
<polygon fill="#43849b" fill-opacity="0.501961" points="165,79 155,89 137,80" />
<polygon fill="#e39669" fill-opacity="0.501961" points="113,54 102,55 111,78" />
<polygon fill="#10201c" fill-opacity="0.501961" points="206,117 202,105 180,112" />
<polygon fill="#ca9d87" fill-opacity="0.501961" points="153,51 113,41 120,72" />
<polygon fill="#4f6160" fill-opacity="0.501961" points="238,109 203,121 261,146" />
<polygon fill="#00100c" fill-opacity="0.501961" points="71,108 97,111 71,118" />
<polygon fill="#ffe9c5" fill-opacity="0.501961" points="-16,73 1,-4 13,63" />
<polygon fill="#90afba" fill-opacity="0.501961" points="250,34 241,-7 115,-2" />
<polygon fill="#1a363f" fill-opacity="0.501961" points="-5,93 38,91 10,109" />
<polygon fill="#95877a" fill-opacity="0.501961" points="209,84 214,93 211,108" />
<polygon fill="#212b28" fill-opacity="0.501961" points="100,68 109,69 108,75" />
<polygon fill="#28332b" fill-opacity="0.501961" points="265,117 201,138 206,174" />
<polygon fill="#647f88" fill-opacity="0.501961" points="258,75 170,55 249,51" />
<polygon fill="#0c211f" fill-opacity="0.501961" points="212,110 214,99 248,106" />
<polygon fill="#86654b" fill-opacity="0.501961" points="37,87 26,55 38,61" />
<polygon fill="#50767f" fill-opacity="0.501961" points="141,103 125,108 153,109" />
<polygon fill="#41360f" fill-opacity="0.501961" points="248,185 271,144 242,148" />
<polygon fill="#ffd288" fill-opacity="0.501961" points="17,71 46,37 -5,62" />
<polygon fill="#8499a0" fill-opacity="0.501961" points="100,111 71,101 103,102" />
<polygon fill="#80868c" fill-opacity="0.501961" points="136,61 156,42 220,77" />
<polygon fill="#556468" fill-opacity="0.501961" points="61,119 59,86 72,123" />
<polygon fill="#16414c" fill-opacity="0.501961" points="155,92 178,106 228,84" />
<polygon fill="#000500" fill-opacity="0.501961" points="38,107 13,123 54,124" />
<polygon fill="#041b19" fill-opacity="0.501961" points="150,104 113,107 128,98" />
<polygon fill="#5e6f6e" fill-opacity="0.501961" points="38,74 49,109 34,106" />
<polygon fill="#1d3335" fill-opacity="0.501961" points="96,54 90,58 94,77" />
<polygon fill="#001e26" fill-opacity="0.501961" points="74,98 64,91 61,103" />
<polygon fill="#d7977c" fill-opacity="0.501961" points="44,37 11,30 31,28" />
<polygon fill="#b6cad3" fill-opacity="0.501961" points="47,9 -10,13 -16,-13" />
<polygon fill="#1c200b" fill-opacity="0.501961" points="6,129 -16,162 68,153" />
<polygon fill="#071a19" fill-opacity="0.501961" points="181,117 158,119 143,134" />
<polygon fill="#878d8e" fill-opacity="0.501961" points="44,27 64,17 3,12" />
<polygon fill="#1b2722" fill-opacity="0.501961" points="120,131 75,109 156,109" />
<polygon fill="#a6cddc" fill-opacity="0.501961" points="271,-16 271,35 237,3" />
<polygon fill="#a6b8bd" fill-opacity="0.501961" points="240,33 123,-14 44,11" />
<polygon fill="#334b4a" fill-opacity="0.501961" points="118,94 111,64 125,75" />
<polygon fill="#2a2c19" fill-opacity="0.501961" points="89,48 84,53 72,47" />
<polygon fill="#1a2e2e" fill-opacity="0.501961" points="44,115 65,131 57,93" />
<polygon fill="#3d7891" fill-opacity="0.501961" points="175,109 179,120 195,119" />
<polygon fill="#e4a185" fill-opacity="0.501961" points="144,79 174,75 130,69" />
<polygon fill="#000d0f" fill-opacity="0.501961" points="92,100 94,80 103,92" />
<polygon fill="#c7d0d1" fill-opacity="0.501961" points="93,10 159,43 59,25" />
<polygon fill="#3e300e" fill-opacity="0.501961" points="22,120 79,140 39,150" />
<polygon fill="#667678" fill-opacity="0.501961" points="219,99 231,98 223,104" />
<polygon fill="#ffd699" fill-opacity="0.501961" points="59,54 40,47 37,73" />
<polygon fill="#ffa95c" fill-opacity="0.501961" points="78,61 53,57 60,68" />
<polygon fill="#6c5a45" fill-opacity="0.501961" points="77,81 18,64 23,80" />
<polygon fill="#1c383c" fill-opacity="0.501961" points="132,72 147,94 138,143" />
<polygon fill="#cfc4b4" fill-opacity="0.501961" points="17,109 22,109 13,115" />
<polygon fill="#45462e" fill-opacity="0.501961" points="15,134 -9,126 14,111" />
<polygon fill="#f1c8a6" fill-opacity="0.501961" points="127,51 102,37 87,47" />
<polygon fill="#5e777b" fill-opacity="0.501961" points="243,109 223,122 207,120" />
<polygon fill="#ffe5cc" fill-opacity="0.501961" points="-16,25 -5,42 48,41" />
<polygon fill="#4a5e64" fill-opacity="0.501961" points="92,98 91,79 66,104" />
<polygon fill="#403e2d" fill-opacity="0.501961" points="80,63 81,71 72,65" />
<polygon fill="#17363a" fill-opacity="0.501961" points="170,81 157,86 175,104" />
<polygon fill="#cc8d6c" fill-opacity="0.501961" points="105,63 131,60 86,47" />
<polygon fill="#476b7c" fill-opacity="0.501961" points="158,133 175,127 165,134" />
<polygon fill="#455554" fill-opacity="0.501961" points="53,65 64,70 64,97" />
<polygon fill="#010500" fill-opacity="0.501961" points="24,121 22,105 67,130" />
<polygon fill="#6c96a6" fill-opacity="0.501961" points="176,72 207,84 170,85" />
<polygon fill="#6c848b" fill-opacity="0.501961" points="233,42 242,49 246,40" />
<polygon fill="#dd976d" fill-opacity="0.501961" points="32,43 57,52 73,46" />
<polygon fill="#527584" fill-opacity="0.501961" points="103,94 104,114 92,108" />
<polygon fill="#ffde95" fill-opacity="0.501961" points="66,79 66,66 70,74" />
<polygon fill="#85a1ac" fill-opacity="0.501961" points="29,-16 83,15 26,1" />
<polygon fill="#fca977" fill-opacity="0.501961" points="97,77 106,61 99,60" />
<polygon fill="#3e575c" fill-opacity="0.501961" points="241,94 251,145 237,143" />
<polygon fill="#070a00" fill-opacity="0.501961" points="215,185 252,151 224,151" />
<polygon fill="#ffc776" fill-opacity="0.501961" points="62,57 50,72 37,63" />
<polygon fill="#415d65" fill-opacity="0.501961" points="143,144 155,142 135,139" />
<polygon fill="#297f9a" fill-opacity="0.501961" points="42,107 50,102 45,112" />
<polygon fill="#4488a1" fill-opacity="0.501961" points="265,78 271,90 224,84" />
<polygon fill="#c8c9c4" fill-opacity="0.501961" points="83,97 85,105 91,105" />
<polygon fill="#a28d81" fill-opacity="0.501961" points="169,105 158,113 157,106" />
<polygon fill="#63675f" fill-opacity="0.501961" points="203,111 213,110 213,99" />
<polygon fill="#191c09" fill-opacity="0.501961" points="216,140 148,139 203,121" />
<polygon fill="#ffdf9f" fill-opacity="0.501961" points="-13,64 24,43 27,65" />
<polygon fill="#36311c" fill-opacity="0.501961" points="79,61 82,63 82,52" />
<polygon fill="#d8a085" fill-opacity="0.501961" points="117,58 130,75 121,69" />
<polygon fill="#eefdff" fill-opacity="0.501961" points="2,113 -16,123 -16,114" />
<polygon fill="#beb9b3" fill-opacity="0.501961" points="72,18 107,40 46,29" />
<polygon fill="#b76f38" fill-opacity="0.501961" points="10,68 -16,89 -16,66" />
<polygon fill="#13343c" fill-opacity="0.501961" points="229,89 214,84 216,99" />
<polygon fill="#323a35" fill-opacity="0.501961" points="16,81 29,106 34,75" />
<polygon fill="#a9928e" fill-opacity="0.501961" points="124,67 163,74 151,43" />
<polygon fill="#c4c6c3" fill-opacity="0.501961" points="199,48 145,42 105,-1" />
<polygon fill="#728184" fill-opacity="0.501961" points="53,100 47,104 56,104" />
<polygon fill="#2f4641" fill-opacity="0.501961" points="119,64 115,61 116,75" />
<polygon fill="#3d5e68" fill-opacity="0.501961" points="179,128 177,85 189,92" />
<polygon fill="#aeb4b4" fill-opacity="0.501961" points="184,23 231,56 237,29" />
<polygon fill="#72827e" fill-opacity="0.501961" points="89,73 92,65 71,79" />
<polygon fill="#556665" fill-opacity="0.501961" points="216,118 208,133 237,119" />
<polygon fill="#151d15" fill-opacity="0.501961" points="103,130 105,102 130,135" />
<polygon fill="#fad5b5" fill-opacity="0.501961" points="78,45 39,41 79,34" />
<polygon fill="#000000" fill-opacity="0.501961" points="271,120 252,121 271,162" />
<polygon fill="#4b6b7a" fill-opacity="0.501961" points="197,106 153,120 171,106" />
<polygon fill="#88a8b4" fill-opacity="0.501961" points="227,33 230,-16 183,-1" />
<polygon fill="#0f3b47" fill-opacity="0.501961" points="204,89 169,105 209,105" />
<polygon fill="#315a6b" fill-opacity="0.501961" points="255,102 218,92 250,92" />
<polygon fill="#172623" fill-opacity="0.501961" points="216,118 223,106 206,117" />
<polygon fill="#000300" fill-opacity="0.501961" points="66,122 127,135 103,182" />
<polygon fill="#082120" fill-opacity="0.501961" points="25,114 13,124 13,113" />
<polygon fill="#204047" fill-opacity="0.501961" points="74,96 77,79 58,90" />
<polygon fill="#a8aeb3" fill-opacity="0.501961" points="33,6 -12,14 17,22" />
<polygon fill="#61554d" fill-opacity="0.501961" points="-16,65 33,90 0,87" />
<polygon fill="#89a2ad" fill-opacity="0.501961" points="114,13 67,-16 17,-16" />
<polygon fill="#273029" fill-opacity="0.501961" points="120,134 129,112 113,92" />
<polygon fill="#0c1105" fill-opacity="0.501961" points="149,138 141,139 143,114" />
<polygon fill="#3e5b63" fill-opacity="0.501961" points="-7,114 6,102 32,102" />
<polygon fill="#90816c" fill-opacity="0.501961" points="43,86 35,83 44,78" />
<polygon fill="#032125" fill-opacity="0.501961" points="147,101 155,113 153,97" />
<polygon fill="#070f05" fill-opacity="0.501961" points="197,138 105,149 210,185" />
<polygon fill="#273e40" fill-opacity="0.501961" points="85,79 96,64 86,99" />
<polygon fill="#606664" fill-opacity="0.501961" points="159,98 149,107 183,109" />
<polygon fill="#34525b" fill-opacity="0.501961" points="171,153 179,152 170,149" />
<polygon fill="#eca87b" fill-opacity="0.501961" points="112,74 106,63 110,58" />
<polygon fill="#6a8289" fill-opacity="0.501961" points="200,59 147,48 175,45" />
<polygon fill="#8e8c88" fill-opacity="0.501961" points="87,104 81,91 83,79" />
<polygon fill="#425b62" fill-opacity="0.501961" points="105,85 103,98 118,107" />
<polygon fill="#cfdbe0" fill-opacity="0.501961" points="-9,9 20,11 -16,-11" />
<polygon fill="#608fa4" fill-opacity="0.501961" points="135,105 137,109 128,107" />
<polygon fill="#2a2507" fill-opacity="0.501961" points="199,121 170,138 176,125" />
<polygon fill="#000301" fill-opacity="0.501961" points="46,132 54,121 43,118" />
<polygon fill="#4b4234" fill-opacity="0.501961" points="83,108 86,107 80,102" />
<polygon fill="#122b2c" fill-opacity="0.501961" points="243,113 247,98 255,129" />
<polygon fill="#8a7b6e" fill-opacity="0.501961" points="215,83 210,90 211,95" />
<polygon fill="#0d160b" fill-opacity="0.501961" points="60,139 54,128 78,117" />
<polygon fill="#ffd094" fill-opacity="0.501961" points="39,51 38,72 65,52" />
<polygon fill="#dd9f7c" fill-opacity="0.501961" points="109,67 124,50 96,68" />
</g>
</svg>